<!--?xml version="1.0" encoding="utf-8"?-->
<!-- Generator: Adobe Illustrator 22.0.1, SVG Export Plug-In . SVG Version: 6.00 Build 0)  -->
<svg version="1.1" xmlns="http://www.w3.org/2000/svg" xmlns:xlink="http://www.w3.org/1999/xlink" x="0px" y="0px" viewBox="0 0 1366 768" style="" xml:space="preserve" class="">
<style type="text/css">
	.st0{display:none;}
	.st1{display:inline;}
	.st2{enable-background:new    ;}
	.st3{fill:#FFFFFF;}
	.st4{fill:none;stroke:#FFFFFF;stroke-width:1.3;stroke-miterlimit:10;}
</style>
<g id="Layer_2" class="st0">
	<path class="st1 umIfqacM_0" width="1691.9" height="940.5" d="M-106.9 -85.4 L1585 -85.4 L1585 855.1 L-106.9 855.1 Z"></path>
</g>
<g id="Layer_1">
	<g class="st2">
		<path class="st3 umIfqacM_1" d="M101.4,400.1H69.1v-102h32.3C101.4,298.1,101.4,400.1,101.4,400.1z"></path>
		<path class="st3 umIfqacM_2" d="M221.9,400.1h-34.8l-33.6-58.5v58.5h-30v-102h34.2l34.1,57.8v-57.8H222L221.9,400.1L221.9,400.1z"></path>
		<path class="st3 umIfqacM_3" d="M312.3,323.3h-25.8v76.8h-32.2v-76.8h-26v-25.1h84V323.3z"></path>
		<path class="st3 umIfqacM_4" d="M405.4,400.1h-85.1v-102H401v22.4h-48.4v15.2h45.2v22.1h-45.3V378h52.9L405.4,400.1L405.4,400.1z"></path>
		<path class="st3 umIfqacM_5" d="M422.7,298.1H480c4.6,0,9,0.5,13,1.5s7.9,2.7,11.5,5s6.5,5.7,8.6,10.2s3.2,9.8,3.2,16
			c0,6.8-1.6,12.5-4.9,17.1c-3.3,4.6-8.6,8.3-16,11l25,41.2h-36.1l-19.8-36h-9.4v36h-32.3v-102H422.7z M455.1,343.2h13.4
			c2.9,0,5.3-0.2,7.3-0.6s3.8-1.5,5.6-3.4c1.8-1.9,2.7-4.5,2.7-7.9c0-2.7-0.5-4.9-1.4-6.6c-1-1.7-2.4-2.9-4.2-3.6
			c-1.8-0.7-3.5-1.2-4.9-1.4c-1.4-0.2-3.2-0.3-5.3-0.3h-13.1v23.8H455.1z"></path>
		<path class="st3 umIfqacM_6" d="M632.6,400.1h-34.8l-33.6-58.5v58.5h-30v-102h34.2l34.1,57.8v-57.8h30.2v102H632.6z"></path>
		<path class="st3 umIfqacM_7" d="M752.7,400.1H718l-4.5-14.2H678l-4.5,14.2h-34.7l39-102h36.7L752.7,400.1z M706.9,363.1l-10.8-36l-11.1,36
			H706.9z"></path>
		<path class="st3 umIfqacM_8" d="M825.5,323.3h-25.8v76.8h-32.2v-76.8h-26v-25.1h84V323.3z"></path>
		<path class="st3 umIfqacM_9" d="M865.9,400.1h-32.3v-102h32.3V400.1z"></path>
		<path class="st3 umIfqacM_10" d="M990.1,348.3c0,7-1.1,13.8-3.4,20.2c-2.3,6.5-5.6,12.3-9.9,17.6c-4.3,5.3-10.1,9.5-17.3,12.6
			s-15.4,4.7-24.5,4.7c-16.5,0-29.6-4.9-39.5-14.7c-9.9-9.8-14.8-23-14.8-39.6c0-6.9,1.1-13.6,3.2-19.9c2.1-6.4,5.3-12.2,9.6-17.5
			s10-9.5,17.3-12.6c7.2-3.1,15.5-4.7,24.8-4.7c9,0,17,1.5,24.1,4.5s12.9,7,17.2,12.1s7.6,10.8,9.9,17.1
			C989,334.4,990.1,341.1,990.1,348.3z M913,349.4c0,9,1.9,15.9,5.8,20.8c3.9,4.9,9.5,7.4,16.7,7.4c6.2,0,11.4-2.4,15.7-7.1
			c4.3-4.8,6.4-12.4,6.4-23c0-9.4-2.1-16.3-6.4-20.7c-4.2-4.4-9.5-6.6-15.7-6.6c-6.8,0-12.3,2.6-16.4,7.7
			C915,332.9,913,340.1,913,349.4z"></path>
		<path class="st3 umIfqacM_11" d="M1103.5,400.1h-34.8l-33.6-58.5v58.5h-30v-102h34.2l34.1,57.8v-57.8h30.2L1103.5,400.1L1103.5,400.1z"></path>
		<path class="st3 umIfqacM_12" d="M1223.6,400.1H1189l-4.5-14.2H1149l-4.5,14.2h-34.7l39-102h36.7L1223.6,400.1z M1177.8,363.1l-10.8-36
			l-11.1,36H1177.8z"></path>
		<path class="st3 umIfqacM_13" d="M1302.3,400.1h-71.6v-102h32.2v76.2h39.4V400.1z"></path>
	</g>
	<g class="st2">
		<path class="st3 umIfqacM_14" d="M857.8,434.2h-7.2v21.5h-9v-21.5h-7.3v-7h23.5V434.2z"></path>
		<path class="st3 umIfqacM_15" d="M890.6,427.2l-11.5,16.5v12H870v-12l-11.4-16.5H869l5.6,9.5l5.5-9.5H890.6z"></path>
		<path class="st3 umIfqacM_16" d="M892.9,427.2H910c3.2,0,5.6,0.8,7.2,2.5c1.7,1.7,2.5,3.9,2.5,6.8s-0.9,5.3-2.6,7.2c-1.7,1.8-4.1,2.8-7.3,2.8
			H902v9.3h-9.1V427.2z M902,433.2v7.3h5.1c1.1,0,2-0.3,2.7-1c0.7-0.6,1-1.5,1-2.7c0-1-0.3-1.8-0.9-2.5c-0.6-0.7-1.5-1.1-2.8-1.1
			L902,433.2L902,433.2z"></path>
		<path class="st3 umIfqacM_17" d="M953.1,441.2c0,2-0.3,3.9-0.9,5.7c-0.6,1.8-1.6,3.4-2.8,4.9s-2.8,2.7-4.8,3.5s-4.3,1.3-6.9,1.3
			c-4.6,0-8.3-1.4-11.1-4.1s-4.1-6.4-4.1-11.1c0-1.9,0.3-3.8,0.9-5.6c0.6-1.8,1.5-3.4,2.7-4.9s2.8-2.7,4.8-3.5c2-0.9,4.3-1.3,7-1.3
			c2.5,0,4.8,0.4,6.7,1.3c2,0.8,3.6,2,4.8,3.4s2.1,3,2.8,4.8C952.8,437.3,953.1,439.2,953.1,441.2z M931.6,441.5
			c0,2.5,0.5,4.4,1.6,5.8s2.6,2.1,4.7,2.1c1.7,0,3.2-0.7,4.4-2s1.8-3.5,1.8-6.4c0-2.6-0.6-4.6-1.8-5.8s-2.7-1.8-4.4-1.8
			c-1.9,0-3.4,0.7-4.6,2.1C932.1,436.9,931.6,438.9,931.6,441.5z"></path>
		<path class="st3 umIfqacM_18" d="M986.1,434.8l-8,2.3c-0.2-1.4-0.9-2.5-1.9-3.2s-2.2-1.1-3.7-1.1c-2.4,0-4.1,0.8-5.2,2.4s-1.6,3.5-1.6,5.8
			c0,3,0.7,5.2,2,6.6s3,2.1,5,2.1c1.3,0,2.5-0.3,3.6-1s1.7-1.7,1.8-3h-5.3V440H986v15.7h-6.7v-2c-2.5,1.8-5.3,2.7-8.6,2.7
			c-1.6,0-3.1-0.3-4.7-0.9c-1.6-0.6-3.1-1.4-4.5-2.6c-1.4-1.1-2.6-2.7-3.5-4.7s-1.3-4.2-1.3-6.7c0-2.9,0.6-5.4,1.7-7.8
			c1.1-2.3,2.9-4.2,5.2-5.7s5.1-2.2,8.2-2.2c2,0,4,0.3,5.9,0.9s3.7,1.6,5.3,3S985.6,432.9,986.1,434.8z"></path>
		<path class="st3 umIfqacM_19" d="M991.9,427.2h16c1.3,0,2.5,0.1,3.6,0.4s2.2,0.7,3.2,1.4s1.8,1.6,2.4,2.8c0.6,1.3,0.9,2.7,0.9,4.5
			c0,1.9-0.5,3.5-1.4,4.8s-2.4,2.3-4.5,3.1l7,11.5H1009l-5.5-10.1h-2.6v10.1h-9.1L991.9,427.2L991.9,427.2z M1000.9,439.8h3.8
			c0.8,0,1.5-0.1,2-0.2c0.6-0.1,1.1-0.4,1.6-1c0.5-0.5,0.7-1.3,0.7-2.2c0-0.8-0.1-1.4-0.4-1.8s-0.7-0.8-1.2-1s-1-0.3-1.4-0.4
			s-0.9-0.1-1.5-0.1h-3.7v6.7H1000.9z"></path>
		<path class="st3 umIfqacM_20" d="M1050.5,455.7h-9.7l-1.3-4h-9.9l-1.3,4h-9.7l10.9-28.5h10.3L1050.5,455.7z M1037.7,445.4l-3-10.1l-3.1,10.1
			H1037.7z"></path>
		<path class="st3 umIfqacM_21" d="M1052.5,427.2h17.1c3.2,0,5.6,0.8,7.2,2.5c1.7,1.7,2.5,3.9,2.5,6.8s-0.9,5.3-2.6,7.2
			c-1.7,1.8-4.1,2.8-7.3,2.8h-7.9v9.3h-9.1v-28.6H1052.5z M1061.5,433.2v7.3h5.1c1.1,0,2-0.3,2.7-1c0.7-0.6,1-1.5,1-2.7
			c0-1-0.3-1.8-0.9-2.5s-1.5-1.1-2.8-1.1L1061.5,433.2L1061.5,433.2z"></path>
		<path class="st3 umIfqacM_22" d="M1108.6,455.7h-9.1v-11h-8.6v11h-9v-28.5h9v10.4h8.6v-10.4h9.1V455.7z"></path>
		<path class="st3 umIfqacM_23" d="M1123.8,455.7h-9.1v-28.5h9.1V455.7z"></path>
		<path class="st3 umIfqacM_24" d="M1149,444.6l7.7,3.7c-2.9,5.5-7.6,8.2-13.9,8.2c-2,0-3.9-0.3-5.6-0.9s-3.1-1.4-4.2-2.4s-2.1-2.2-2.8-3.5
			c-0.8-1.3-1.3-2.7-1.7-4s-0.5-2.8-0.5-4.2c0-4.5,1.4-8.2,4.2-11.1c2.8-2.9,6.3-4.4,10.6-4.4c1.8,0,3.5,0.2,5.1,0.7s2.9,1.2,4,2
			s2.1,1.7,2.8,2.5c0.8,0.9,1.4,1.8,1.9,2.7l-7.6,3.8l-0.4-0.8c-0.3-0.5-0.5-0.9-0.6-1.1s-0.4-0.5-0.7-1c-0.4-0.4-0.7-0.8-1.1-1
			c-0.3-0.2-0.8-0.4-1.3-0.6c-0.6-0.2-1.2-0.3-1.8-0.3c-2,0-3.5,0.7-4.5,2.2s-1.5,3.3-1.5,5.5c0,3,0.6,5.2,1.7,6.5s2.6,2,4.3,2
			c0.9,0,1.7-0.1,2.4-0.4c0.7-0.3,1.2-0.7,1.7-1.2c0.4-0.5,0.8-1,1-1.5C1148.5,445.8,1148.7,445.3,1149,444.6z"></path>
		<path class="st3 umIfqacM_25" d="M1198,431.3l-5.7,4.7c-0.7-1.1-1.8-1.8-3.2-2.2c-1.4-0.4-2.8-0.7-4.3-0.7c-2.2,0-3.2,0.6-3.2,1.9
			c0,0.6,0.4,1.1,1.1,1.4s2,0.6,4,1c1.3,0.2,2.3,0.4,3.1,0.6c0.8,0.2,1.8,0.5,3,0.9s2.1,1,2.8,1.5c0.7,0.6,1.3,1.3,1.8,2.3
			s0.8,2.1,0.8,3.4c0,1.8-0.4,3.3-1.1,4.7c-0.7,1.4-1.7,2.4-3,3.3c-1.3,0.8-2.7,1.4-4.2,1.8s-3.2,0.6-5,0.6
			c-6.8,0-11.7-2.1-14.8-6.3l6.9-4.4c0.6,1.3,1.7,2.2,3.2,2.8c1.5,0.6,3.1,0.9,4.7,0.9c2.9,0,4.3-0.7,4.3-2.2c0-0.8-0.4-1.3-1.3-1.7
			s-2.8-0.7-5.6-1.2c-6.5-1.2-9.8-4-9.8-8.6c0-1.5,0.3-2.8,0.8-3.9s1.2-2.1,2.1-2.8c0.8-0.7,1.8-1.3,2.9-1.8s2.2-0.8,3.3-0.9
			s2.2-0.3,3.3-0.3c2.7,0,5.1,0.4,7.4,1.3C1194.7,428.4,1196.5,429.6,1198,431.3z"></path>
		<path class="st3 umIfqacM_26" d="M1222.8,434.2h-7.2v21.5h-9v-21.5h-7.3v-7h23.5V434.2z"></path>
		<path class="st3 umIfqacM_27" d="M1255.5,427.2l-11.5,16.5v12h-9.1v-12l-11.4-16.5h10.4l5.6,9.5l5.5-9.5H1255.5z"></path>
		<path class="st3 umIfqacM_28" d="M1277.9,455.7h-20v-28.5h9v21.3h11V455.7z"></path>
		<path class="st3 umIfqacM_29" d="M1303.3,455.7h-22.7v-28.5h22.6v6.3h-13.5v4.2h11.5v6.2h-11.6v5.7h13.7V455.7z"></path>
	</g>
</g>
<g id="Layer_3">
	<path class="st4 umIfqacM_30" d="M-217,297.6L1701.2,297.6"></path>
	<path class="st4 umIfqacM_31" d="M-217,400.1L1701.2,400.1"></path>
	<path class="st4 umIfqacM_32" d="M-217,456L1701.2,456"></path>
	<path class="st4 umIfqacM_33" d="M-217.2,426.8L1700.9,426.8"></path>
	<path class="st4 umIfqacM_34" d="M1302.8,-500.1L1302.8,1197.8"></path>
	<path class="st4 umIfqacM_35" d="M69.1,-500.1L69.1,1197.8"></path>
	<path class="st4 umIfqacM_36" d="M833.9,-492.5L833.9,1205.4"></path>
</g>
<style data-made-with="vivus-instant">.umIfqacM_0{stroke-dasharray:5265 5267;stroke-dashoffset:5266;animation:umIfqacM_draw 2100ms linear 0ms forwards;}.umIfqacM_1{stroke-dasharray:269 271;stroke-dashoffset:270;animation:umIfqacM_draw 2100ms linear 11ms forwards;}.umIfqacM_2{stroke-dasharray:585 587;stroke-dashoffset:586;animation:umIfqacM_draw 2100ms linear 22ms forwards;}.umIfqacM_3{stroke-dasharray:372 374;stroke-dashoffset:373;animation:umIfqacM_draw 2100ms linear 33ms forwards;}.umIfqacM_4{stroke-dasharray:562 564;stroke-dashoffset:563;animation:umIfqacM_draw 2100ms linear 44ms forwards;}.umIfqacM_5{stroke-dasharray:552 554;stroke-dashoffset:553;animation:umIfqacM_draw 2100ms linear 55ms forwards;}.umIfqacM_6{stroke-dasharray:585 587;stroke-dashoffset:586;animation:umIfqacM_draw 2100ms linear 66ms forwards;}.umIfqacM_7{stroke-dasharray:487 489;stroke-dashoffset:488;animation:umIfqacM_draw 2100ms linear 77ms forwards;}.umIfqacM_8{stroke-dasharray:372 374;stroke-dashoffset:373;animation:umIfqacM_draw 2100ms linear 88ms forwards;}.umIfqacM_9{stroke-dasharray:269 271;stroke-dashoffset:270;animation:umIfqacM_draw 2100ms linear 100ms forwards;}.umIfqacM_10{stroke-dasharray:513 515;stroke-dashoffset:514;animation:umIfqacM_draw 2100ms linear 111ms forwards;}.umIfqacM_11{stroke-dasharray:585 587;stroke-dashoffset:586;animation:umIfqacM_draw 2100ms linear 122ms forwards;}.umIfqacM_12{stroke-dasharray:487 489;stroke-dashoffset:488;animation:umIfqacM_draw 2100ms linear 133ms forwards;}.umIfqacM_13{stroke-dasharray:348 350;stroke-dashoffset:349;animation:umIfqacM_draw 2100ms linear 144ms forwards;}.umIfqacM_14{stroke-dasharray:104 106;stroke-dashoffset:105;animation:umIfqacM_draw 2100ms linear 155ms forwards;}.umIfqacM_15{stroke-dasharray:117 119;stroke-dashoffset:118;animation:umIfqacM_draw 2100ms linear 166ms forwards;}.umIfqacM_16{stroke-dasharray:133 135;stroke-dashoffset:134;animation:umIfqacM_draw 2100ms linear 177ms forwards;}.umIfqacM_17{stroke-dasharray:144 146;stroke-dashoffset:145;animation:umIfqacM_draw 2100ms linear 188ms forwards;}.umIfqacM_18{stroke-dasharray:172 174;stroke-dashoffset:173;animation:umIfqacM_draw 2100ms linear 200ms forwards;}.umIfqacM_19{stroke-dasharray:155 157;stroke-dashoffset:156;animation:umIfqacM_draw 2100ms linear 211ms forwards;}.umIfqacM_20{stroke-dasharray:137 139;stroke-dashoffset:138;animation:umIfqacM_draw 2100ms linear 222ms forwards;}.umIfqacM_21{stroke-dasharray:133 135;stroke-dashoffset:134;animation:umIfqacM_draw 2100ms linear 233ms forwards;}.umIfqacM_22{stroke-dasharray:154 156;stroke-dashoffset:155;animation:umIfqacM_draw 2100ms linear 244ms forwards;}.umIfqacM_23{stroke-dasharray:76 78;stroke-dashoffset:77;animation:umIfqacM_draw 2100ms linear 255ms forwards;}.umIfqacM_24{stroke-dasharray:138 140;stroke-dashoffset:139;animation:umIfqacM_draw 2100ms linear 266ms forwards;}.umIfqacM_25{stroke-dasharray:156 158;stroke-dashoffset:157;animation:umIfqacM_draw 2100ms linear 277ms forwards;}.umIfqacM_26{stroke-dasharray:104 106;stroke-dashoffset:105;animation:umIfqacM_draw 2100ms linear 288ms forwards;}.umIfqacM_27{stroke-dasharray:117 119;stroke-dashoffset:118;animation:umIfqacM_draw 2100ms linear 300ms forwards;}.umIfqacM_28{stroke-dasharray:97 99;stroke-dashoffset:98;animation:umIfqacM_draw 2100ms linear 311ms forwards;}.umIfqacM_29{stroke-dasharray:153 155;stroke-dashoffset:154;animation:umIfqacM_draw 2100ms linear 322ms forwards;}.umIfqacM_30{stroke-dasharray:1919 1921;stroke-dashoffset:1920;animation:umIfqacM_draw 2100ms linear 333ms forwards;}.umIfqacM_31{stroke-dasharray:1919 1921;stroke-dashoffset:1920;animation:umIfqacM_draw 2100ms linear 344ms forwards;}.umIfqacM_32{stroke-dasharray:1919 1921;stroke-dashoffset:1920;animation:umIfqacM_draw 2100ms linear 355ms forwards;}.umIfqacM_33{stroke-dasharray:1919 1921;stroke-dashoffset:1920;animation:umIfqacM_draw 2100ms linear 366ms forwards;}.umIfqacM_34{stroke-dasharray:1698 1700;stroke-dashoffset:1699;animation:umIfqacM_draw 2100ms linear 377ms forwards;}.umIfqacM_35{stroke-dasharray:1698 1700;stroke-dashoffset:1699;animation:umIfqacM_draw 2100ms linear 388ms forwards;}.umIfqacM_36{stroke-dasharray:1698 1700;stroke-dashoffset:1699;animation:umIfqacM_draw 2100ms linear 400ms forwards;}@keyframes umIfqacM_draw{100%{stroke-dashoffset:0;}}@keyframes umIfqacM_fade{0%{stroke-opacity:1;}94.02985074626866%{stroke-opacity:1;}100%{stroke-opacity:0;}}</style></svg>
