<?xml version="1.0" encoding="utf-8"?>
<!-- Generator: Adobe Illustrator 22.0.1, SVG Export Plug-In . SVG Version: 6.00 Build 0)  -->
<svg version="1.1" id="Layer_1" xmlns="http://www.w3.org/2000/svg" xmlns:xlink="http://www.w3.org/1999/xlink" x="0px" y="0px"
	 viewBox="0 0 50 35.4" style="enable-background:new 0 0 50 35.4;" xml:space="preserve">
<style type="text/css">
	.st0{fill:#FFFFFF;}
</style>
<g>
	<path class="st0" d="M8.5,27.5H1.6V5.7h6.9V27.5z"/>
	<path class="st0" d="M27.5,11.1H22v16.4h-6.9V11.1H9.5V5.7h18V11.1z"/>
	<path class="st0" d="M48.3,8.9l-4.4,3.6c-0.5-0.8-1.3-1.4-2.4-1.7c-1.1-0.3-2.2-0.5-3.3-0.5c-1.6,0-2.5,0.5-2.5,1.4
		c0,0.5,0.3,0.9,0.8,1.1c0.5,0.2,1.5,0.5,3,0.7c1,0.2,1.8,0.3,2.4,0.4c0.6,0.1,1.4,0.4,2.3,0.7c0.9,0.3,1.6,0.7,2.2,1.2
		c0.5,0.4,1,1,1.4,1.8c0.4,0.8,0.6,1.6,0.6,2.6c0,1.4-0.3,2.6-0.8,3.6c-0.6,1-1.3,1.9-2.3,2.5c-1,0.6-2,1.1-3.2,1.4
		c-1.2,0.3-2.4,0.5-3.8,0.5c-5.2,0-9-1.6-11.3-4.8l5.3-3.4c0.5,1,1.3,1.7,2.5,2.2c1.2,0.5,2.4,0.7,3.6,0.7c2.2,0,3.3-0.6,3.3-1.7
		c0-0.6-0.3-1-1-1.3c-0.7-0.2-2.1-0.6-4.3-0.9c-5-0.9-7.5-3.1-7.5-6.6c0-1.1,0.2-2.1,0.6-3c0.4-0.9,0.9-1.6,1.6-2.1
		c0.6-0.5,1.4-1,2.3-1.3c0.9-0.3,1.7-0.6,2.5-0.7C36.7,5.1,37.5,5,38.4,5c2,0,3.9,0.3,5.7,1C45.8,6.6,47.2,7.6,48.3,8.9z"/>
</g>
</svg>
