<?xml version="1.0" encoding="utf-8"?>
<!-- Generator: Adobe Illustrator 22.0.1, SVG Export Plug-In . SVG Version: 6.00 Build 0)  -->
<svg version="1.1" id="Layer_1" xmlns="http://www.w3.org/2000/svg" xmlns:xlink="http://www.w3.org/1999/xlink" x="0px" y="0px"
	 viewBox="0 0 198.4 42.5" style="enable-background:new 0 0 198.4 42.5;" xml:space="preserve">
<style type="text/css">
	.st0{fill:#FFFFFF;}
</style>
<g>
	<path class="st0" d="M57.8,28.8H54V17h3.7V28.8z"/>
	<path class="st0" d="M71.8,28.8h-4L63.8,22v6.8h-3.5V17h3.9l3.9,6.7V17h3.5L71.8,28.8L71.8,28.8z"/>
	<path class="st0" d="M82.3,19.9h-3v8.9h-3.7v-8.9h-3V17h9.8L82.3,19.9L82.3,19.9z"/>
	<path class="st0" d="M93.1,28.8h-9.9V17h9.4v2.6H87v1.8h5.3v2.6H87v2.3h6.1L93.1,28.8L93.1,28.8z"/>
	<path class="st0" d="M95.1,17h6.6c0.5,0,1,0.1,1.5,0.1c0.5,0.1,0.9,0.3,1.3,0.6c0.4,0.3,0.7,0.7,1,1.2c0.2,0.5,0.4,1.2,0.4,1.8
		c0,0.8-0.2,1.5-0.6,2c-0.4,0.5-1,0.9-1.9,1.3l2.9,4.8h-4.2l-2.3-4.2h-1.1v4.2h-3.7V17z M98.9,22.3h1.5c0.4,0,0.6,0,0.9-0.1
		c0.2-0.1,0.4-0.1,0.7-0.4c0.2-0.2,0.3-0.5,0.3-0.9c0-0.3-0.1-0.6-0.1-0.7c-0.1-0.2-0.3-0.4-0.5-0.4c-0.2-0.1-0.4-0.1-0.6-0.1
		s-0.4,0-0.7,0h-1.5L98.9,22.3L98.9,22.3z"/>
	<path class="st0" d="M119.5,28.8h-4l-3.9-6.8v6.8h-3.5V17h3.9l3.9,6.7V17h3.5L119.5,28.8L119.5,28.8z"/>
	<path class="st0" d="M133.5,28.8h-4l-0.5-1.7h-4.2l-0.5,1.7h-4l4.5-11.8h4.2L133.5,28.8z M128.2,24.5l-1.2-4.2l-1.3,4.2H128.2z"/>
	<path class="st0" d="M142,19.9h-3v8.9h-3.7v-8.9h-3V17h9.8L142,19.9L142,19.9z"/>
	<path class="st0" d="M146.6,28.8h-3.7V17h3.7V28.8z"/>
	<path class="st0" d="M161.1,22.9c0,0.8-0.1,1.6-0.4,2.3c-0.3,0.7-0.7,1.5-1.2,2c-0.5,0.6-1.2,1.1-2,1.5c-0.8,0.4-1.8,0.5-2.8,0.5
		c-1.9,0-3.4-0.6-4.6-1.7c-1.2-1.2-1.8-2.7-1.8-4.6c0-0.8,0.1-1.6,0.4-2.3s0.6-1.4,1.1-2c0.5-0.6,1.2-1.1,2-1.5
		c0.8-0.4,1.8-0.5,2.9-0.5c1,0,2,0.1,2.8,0.5c0.8,0.4,1.5,0.8,2,1.4c0.5,0.6,0.9,1.2,1.2,2C161,21.2,161.1,22,161.1,22.9z
		 M152.1,22.9c0,1,0.2,1.8,0.7,2.4c0.4,0.6,1.1,0.9,2,0.9c0.7,0,1.3-0.3,1.8-0.8c0.5-0.6,0.7-1.5,0.7-2.7c0-1.1-0.2-1.9-0.7-2.4
		c-0.5-0.5-1.1-0.7-1.8-0.7c-0.8,0-1.5,0.3-1.9,0.9C152.3,21,152.1,21.9,152.1,22.9z"/>
	<path class="st0" d="M174.2,28.8h-4l-3.9-6.8v6.8h-3.5V17h3.9l3.9,6.7V17h3.5L174.2,28.8L174.2,28.8z"/>
	<path class="st0" d="M188.2,28.8h-4l-0.5-1.7h-4.1l-0.5,1.7h-4l4.5-11.8h4.2L188.2,28.8z M182.9,24.5l-1.2-4.2l-1.3,4.2H182.9z"/>
	<path class="st0" d="M197.4,28.8h-8.3V17h3.7v8.8h4.6L197.4,28.8L197.4,28.8z"/>
</g>
</svg>
